<svg width="21" height="21" fill="none" xmlns="http://www.w3.org/2000/svg"><path d="M13.3299 10.5005l7.3773-7.37729c.3891-.39151.3891-1.02369 0-1.4152L19.292.291799c-.3915-.3890655-1.0237-.3890655-1.4152 0L10.4995 7.67009 3.12221.2928c-.39151-.3890656-1.02369-.3890656-1.4152 0L.291799 1.70801c-.3890655.39151-.3890655 1.02369 0 1.4152L7.66909 10.5005.291799 17.8778c-.3890655.3915-.3890655 1.0237 0 1.4152l1.416211 1.4152c.39151.3891 1.02369.3891 1.4152 0l7.37729-7.3773 7.3773 7.3773c.3915.3891 1.0237.3891 1.4152 0l1.4152-1.4152c.3891-.3915.3891-1.0237 0-1.4152l-7.3783-7.3773z" fill="#FB565A"/></svg>