<svg width="160" height="67" viewBox="0 0 160 67" fill="none" xmlns="http://www.w3.org/2000/svg">
<path fill-rule="evenodd" clip-rule="evenodd" d="M48.031 24.783C51.682 28.757 59.647 25.158 57.062 19.861C55.336 16.305 52.75 17.13 50.904 18.041C47.208 19.82 46.509 23.088 48.031 24.783ZM42.105 22.002C44.481 26.868 37.168 30.173 33.813 26.523C32.415 24.968 33.058 21.963 36.449 20.33C38.146 19.494 40.522 18.734 42.105 22.002ZM157.936 50.374C156.715 50.5332 155.442 50.6425 154.221 50.7474L154.179 50.751V50.807C151.764 68.171 127.991 71.038 127.4 57.406C127.131 51.239 138.993 49.456 150.798 48.318C151.007 42.9112 147.233 44.1234 142.648 45.5959C137.829 47.1437 132.115 48.979 129.19 43.717C124.171 34.692 143.822 25.779 145.918 27.615C152.271 33.1766 149.4 34.2063 144.727 35.8824L144.539 35.95C135.049 39.36 138.748 40.057 140.028 39.676C147.597 37.423 154.394 38.636 154.34 47.993C154.955 47.9419 155.557 47.9024 156.154 47.8634L156.154 47.8634C156.807 47.8206 157.452 47.7784 158.097 47.722C160.403 47.507 160.564 50.157 157.936 50.374ZM150.422 51.13C141.298 52.158 133.409 53.566 134.269 56.485C135.985 62.058 147.846 63.303 150.422 51.13ZM117.79 34.23C116.975 39.88 116.996 45.881 117.678 45.918C118.012 45.937 119.982 45.572 120.617 44.411C121.226 43.2933 121.794 41.7543 122.388 40.141L122.388 40.1409L122.388 40.1408L122.388 40.1408L122.388 40.1407L122.388 40.1406L122.388 40.1405C123.586 36.8907 124.895 33.3397 126.883 32.324C129.725 30.873 118.795 27.279 117.79 34.23ZM28.883 62.666C20.964 68.004 14.664 66.825 16.671 51.818C18.121 40.914 15.723 40.297 13.549 42.376C10.704 45.073 8.921 52.099 8.865 58.788C9.12323 60.3951 9.45828 61.9889 9.869 63.564C10.203 65.194 4.962 66.879 1.895 64.575C0.837 63.79 0 55.865 0 45.131C0 36.307 1.171 30.236 2.23 29.956C10.259 27.765 11.542 31.304 9.813 37.937C9.12537 40.5343 8.65871 43.185 8.418 45.861C10.091 41.197 12.489 37.376 15.221 35.688C22.637 31.024 28.826 33.215 27.655 42.489C25.648 59.069 25.481 61.316 27.265 60.024C29.496 58.45 30.945 61.262 28.883 62.666ZM41.766 65.142C47.176 65.761 52.807 64.074 54.982 60.59C56.821 57.667 55.316 56.655 53.197 59.015C48.737 64.131 44.109 61.826 42.158 56.655L42.66 56.487C52.082 52.721 57.992 42.493 54.257 36.704C49.126 28.723 33.069 35.86 31.061 47.045C29.221 57.386 34.016 64.299 41.766 65.142ZM41.377 53.172C47.232 49.013 49.183 39.852 47.566 37.267C45.838 34.57 42.492 38.784 41.321 49.013C41.21 50.474 41.21 51.878 41.377 53.172ZM77.125 51.051C79.188 50.376 81.494 48.499 83.091 45.992C83.538 45.289 83.914 44.657 84.43 43.012C84.3675 43.2111 84.3915 43.1203 84.4509 42.8953C84.5588 42.4862 84.7839 41.6335 84.82 41.271C84.82 41.215 84.876 40.932 84.932 40.822C86.157 33.965 81.921 30.086 76.065 33.009C72.776 34.638 68.706 40.822 66.253 47.51C66.866 43.912 67.925 40.484 69.096 37.111C71.103 31.154 67.368 28.119 60.956 29.862C59.896 30.143 57.945 37.955 57.945 46.779C57.945 57.513 58.503 63.695 59.562 64.483C62.628 66.843 68.092 65.101 67.535 63.527C67.3189 62.9291 67.1554 62.3284 66.9926 61.7303L66.977 61.673C66.977 61.504 66.977 61.335 66.922 61.167C65.861 54.196 69.933 44.532 73.278 41.946C74.17 41.215 75.396 41.721 75.564 43.632C72.832 44.981 71.94 47.342 71.94 48.353C71.94 51.107 74.727 51.781 77.125 51.051Z" fill="black"/>
<path fill-rule="evenodd" clip-rule="evenodd" d="M113.207 27.161C112.726 29.6539 112.354 32.1666 112.092 34.692C111.033 44.752 111.48 53.688 112.705 57.678C113.431 59.815 116.162 62.624 118.783 59.701C121.626 56.498 124.75 58.352 120.957 62.117C118.617 64.422 114.268 65.995 109.918 65.545C106.795 65.152 104.9 63.13 103.784 60.04C103.34 60.938 102.837 61.725 102.224 62.342C100.105 64.535 97.539 65.772 94.25 65.434C87.613 64.704 83.712 57.511 85.551 47.281C87.503 36.49 96.87 32.556 102.279 35.424C102.391 34.075 102.502 32.725 102.614 31.32C102.642 31.1795 102.655 31.039 102.669 30.8985C102.683 30.758 102.697 30.6175 102.724 30.477C101.079 30.8387 99.424 31.1575 97.762 31.433C73.787 35.423 82.04 15.864 87.894 10.75C94.53 5.01699 95.254 8.89499 93.191 10.188C89.511 12.548 87.894 26.093 98.432 26.093C100.161 26.093 101.778 25.981 103.394 25.812C106.685 7.48999 116.665 -1.39101 124.75 1.53199C133.726 4.79199 132.779 19.067 113.207 27.161ZM102.279 51.554C102.055 48.012 102.055 44.022 102.112 39.918C102.112 39.6576 102.127 39.3974 102.141 39.1449C102.155 38.9068 102.168 38.6754 102.168 38.457C98.822 36.939 95.533 42.11 94.695 49.249C93.749 57.622 97.483 62.062 99.603 60.04C101.22 58.409 102.056 53.237 102.279 51.554ZM126.365 8.38899C124.581 5.74699 118.058 8.95099 114.267 22.721C123.802 18.167 127.593 10.299 126.365 8.38899Z" fill="black"/>
<path d="M112.092 34.692L112.589 34.7443L112.589 34.7435L112.092 34.692ZM113.207 27.161L113.016 26.6989L112.767 26.8018L112.716 27.0662L113.207 27.161ZM112.705 57.678L112.227 57.8247L112.229 57.8318L112.232 57.8388L112.705 57.678ZM118.783 59.701L119.155 60.0348L119.157 60.0329L118.783 59.701ZM120.957 62.117L121.308 62.4732L121.309 62.4718L120.957 62.117ZM109.918 65.545L109.856 66.0412L109.867 66.0423L109.918 65.545ZM103.784 60.04L104.254 59.8701L103.856 58.7667L103.336 59.8184L103.784 60.04ZM102.224 62.342L101.869 61.9896L101.864 61.9946L102.224 62.342ZM94.25 65.434L94.1953 65.931L94.1989 65.9314L94.25 65.434ZM85.551 47.281L85.059 47.192L85.0589 47.1925L85.551 47.281ZM102.279 35.424L102.045 35.8657L102.715 36.2209L102.777 35.4654L102.279 35.424ZM102.614 31.32L102.123 31.2239L102.118 31.2519L102.116 31.2803L102.614 31.32ZM102.724 30.477L103.215 30.573L103.361 29.825L102.617 29.9887L102.724 30.477ZM97.762 31.433L97.6802 30.9397L97.6799 30.9398L97.762 31.433ZM87.894 10.75L87.5671 10.3716L87.5651 10.3734L87.894 10.75ZM93.191 10.188L92.9255 9.7643L92.9211 9.7671L93.191 10.188ZM103.394 25.812L103.446 26.3093L103.82 26.2702L103.886 25.9004L103.394 25.812ZM124.75 1.53199L124.921 1.06203L124.92 1.06178L124.75 1.53199ZM102.112 39.918L102.612 39.9249V39.918H102.112ZM102.279 51.554L102.775 51.6197L102.781 51.5712L102.778 51.5224L102.279 51.554ZM102.141 39.1449L102.64 39.1734L102.64 39.1734L102.141 39.1449ZM102.168 38.457H102.668V38.1348L102.375 38.0017L102.168 38.457ZM94.695 49.249L94.1984 49.1907L94.1982 49.1929L94.695 49.249ZM99.603 60.04L99.9482 60.402L99.9581 60.392L99.603 60.04ZM126.365 8.38899L126.786 8.11852L126.779 8.10918L126.365 8.38899ZM114.267 22.721L113.785 22.5883L113.494 23.6442L114.482 23.1722L114.267 22.721ZM112.589 34.7435C112.849 32.2326 113.219 29.7343 113.698 27.2558L112.716 27.0662C112.232 29.5734 111.858 32.1006 111.595 34.6405L112.589 34.7435ZM113.183 57.5312C112.59 55.6 112.174 52.421 112.042 48.4446C111.91 44.4788 112.062 39.7529 112.589 34.7443L111.595 34.6396C111.063 39.6911 110.909 44.4632 111.042 48.4778C111.175 52.482 111.595 55.766 112.227 57.8247L113.183 57.5312ZM118.411 59.3672C117.811 60.0357 117.243 60.3362 116.741 60.4264C116.24 60.5166 115.746 60.4074 115.274 60.1486C114.307 59.6184 113.511 58.4973 113.178 57.5172L112.232 57.8388C112.625 58.9957 113.557 60.3476 114.793 61.0254C115.422 61.3706 116.148 61.5492 116.918 61.4107C117.688 61.2722 118.444 60.8277 119.155 60.0348L118.411 59.3672ZM121.309 62.4718C122.289 61.4993 122.867 60.6079 123.096 59.8445C123.326 59.0796 123.22 58.348 122.672 57.9067C122.153 57.4879 121.409 57.4787 120.693 57.7249C119.96 57.9769 119.163 58.5198 118.409 59.3691L119.157 60.0329C119.825 59.2806 120.484 58.8542 121.018 58.6706C121.569 58.4813 121.902 58.5703 122.045 58.6853C122.159 58.7777 122.301 59.0154 122.138 59.5569C121.975 60.0999 121.521 60.8522 120.605 61.7621L121.309 62.4718ZM109.867 66.0423C114.348 66.5059 118.85 64.8946 121.308 62.4732L120.606 61.7608C118.384 63.9494 114.188 65.4841 109.969 65.0476L109.867 66.0423ZM103.314 60.2098C103.89 61.8044 104.679 63.1584 105.756 64.1686C106.84 65.1847 108.194 65.832 109.856 66.0411L109.98 65.0489C108.519 64.865 107.364 64.3048 106.44 63.4391C105.511 62.5676 104.794 61.3656 104.254 59.8701L103.314 60.2098ZM102.579 62.6944C103.243 62.0254 103.775 61.1868 104.232 60.2616L103.336 59.8184C102.905 60.6892 102.431 61.4246 101.869 61.9896L102.579 62.6944ZM94.1989 65.9314C97.6686 66.2879 100.379 64.9708 102.584 62.6894L101.864 61.9946C99.8308 64.0992 97.4094 65.256 94.3011 64.9366L94.1989 65.9314ZM85.0589 47.1925C84.1261 52.3818 84.6389 56.8529 86.2743 60.1426C87.9161 63.4452 90.6885 65.5453 94.1953 65.931L94.3047 64.937C91.1745 64.5927 88.6779 62.7313 87.1697 59.6974C85.6551 56.6506 85.137 52.4102 86.0431 47.3695L85.0589 47.1925ZM102.513 34.9822C96.7165 31.9087 87.0521 36.1735 85.059 47.192L86.043 47.37C87.9539 36.8065 97.0235 33.2033 102.045 35.8657L102.513 34.9822ZM102.116 31.2803C102.004 32.6845 101.893 34.0339 101.781 35.3826L102.777 35.4654C102.889 34.1161 103 32.7655 103.112 31.3597L102.116 31.2803ZM102.171 30.8498C102.157 30.994 102.145 31.1108 102.123 31.2239L103.105 31.416C103.138 31.2482 103.153 31.0839 103.167 30.9472L102.171 30.8498ZM102.233 30.3809C102.2 30.5488 102.185 30.713 102.171 30.8498L103.167 30.9472C103.181 30.8029 103.193 30.6862 103.215 30.573L102.233 30.3809ZM97.8438 31.9263C99.5144 31.6493 101.177 31.3289 102.831 30.9653L102.617 29.9887C100.98 30.3485 99.3337 30.6656 97.6802 30.9397L97.8438 31.9263ZM87.5651 10.3734C86.0393 11.7064 84.3892 13.9468 83.1459 16.48C81.9031 19.0122 81.0371 21.8971 81.1425 24.5255C81.2491 27.1799 82.3531 29.5911 85.045 31.0437C87.6955 32.474 91.808 32.9308 97.8441 31.9262L97.6799 30.9398C91.7285 31.9302 87.882 31.4383 85.5199 30.1637C83.1993 28.9114 82.2371 26.8614 82.1417 24.4854C82.0453 22.0836 82.8418 19.3693 84.0436 16.9206C85.2449 14.4729 86.8218 12.3506 88.223 11.1265L87.5651 10.3734ZM93.4565 10.6117C94.0724 10.2257 94.4978 9.63814 94.6508 9.04997C94.8024 8.46701 94.6966 7.75469 94.0458 7.39627C93.4573 7.07214 92.6168 7.16505 91.6115 7.60342C90.5785 8.05383 89.2457 8.92146 87.5671 10.3716L88.2209 11.1283C89.8603 9.71202 91.1065 8.91453 92.0112 8.52007C92.9435 8.11356 93.3993 8.18185 93.5634 8.27221C93.6653 8.32829 93.7684 8.4696 93.683 8.79826C93.5988 9.12172 93.3411 9.50382 92.9255 9.76433L93.4565 10.6117ZM98.432 25.593C95.9131 25.593 94.1741 24.7879 93.0081 23.5908C91.8322 22.3837 91.1933 20.7303 90.976 18.9644C90.7588 17.1991 90.9681 15.3567 91.4524 13.819C91.9433 12.2602 92.6867 11.1054 93.4609 10.6089L92.9211 9.7671C91.8554 10.4506 91.0166 11.8739 90.4986 13.5186C89.974 15.1842 89.7477 17.1706 89.9835 19.0866C90.2192 21.0019 90.9219 22.8823 92.2917 24.2886C93.6713 25.7049 95.6819 26.593 98.432 26.593V25.593ZM103.342 25.3147C101.738 25.4825 100.139 25.593 98.432 25.593V26.593C100.183 26.593 101.818 26.4795 103.446 26.3093L103.342 25.3147ZM124.92 1.06178C120.629 -0.489687 115.913 1.12644 111.911 5.3617C107.908 9.59716 104.559 16.4975 102.902 25.7236L103.886 25.9004C105.52 16.8045 108.806 10.1033 112.638 6.04853C116.469 1.99355 120.786 0.630669 124.58 2.0022L124.92 1.06178ZM113.398 27.623C123.264 23.543 128.54 17.8625 130.161 12.6831C130.973 10.0906 130.867 7.61933 129.941 5.568C129.014 3.51341 127.283 1.91982 124.921 1.06203L124.579 2.00195C126.705 2.77416 128.221 4.18744 129.03 5.97924C129.84 7.77428 129.957 9.9889 129.207 12.3844C127.705 17.181 122.722 22.685 113.016 26.6989L113.398 27.623ZM101.612 39.911C101.555 44.0169 101.555 48.0231 101.78 51.5856L102.778 51.5224C102.555 48.0009 102.555 44.0271 102.612 39.9249L101.612 39.911ZM101.642 39.1164C101.628 39.3667 101.612 39.641 101.612 39.918H102.612C102.612 39.6742 102.626 39.4282 102.64 39.1734L101.642 39.1164ZM101.668 38.457C101.668 38.6585 101.656 38.8752 101.642 39.1164L102.64 39.1734C102.654 38.9383 102.668 38.6922 102.668 38.457H101.668ZM95.1916 49.3073C95.6047 45.788 96.6188 42.7948 97.9056 40.8861C98.5493 39.9313 99.2394 39.2801 99.9242 38.9491C100.591 38.6268 101.268 38.5978 101.961 38.9123L102.375 38.0017C101.395 37.5572 100.406 37.6053 99.489 38.0488C98.5899 38.4834 97.778 39.2865 97.0764 40.3271C95.6727 42.4092 94.6233 45.5709 94.1984 49.1907L95.1916 49.3073ZM99.2579 59.6782C98.8726 60.0457 98.4526 60.1101 98.0003 59.9225C97.5086 59.7186 96.9446 59.1955 96.4341 58.2959C95.4199 56.5084 94.7271 53.4186 95.1918 49.3051L94.1982 49.1929C93.7169 53.4524 94.4181 56.7691 95.5644 58.7894C96.1342 59.7936 96.842 60.5247 97.6172 60.8462C98.4317 61.1841 99.2734 61.0453 99.9481 60.4018L99.2579 59.6782ZM101.783 51.4883C101.673 52.3195 101.412 54.0116 100.98 55.692C100.763 56.5324 100.507 57.3594 100.211 58.07C99.9101 58.7895 99.5846 59.3484 99.2479 59.688L99.9581 60.392C100.43 59.9161 100.815 59.2169 101.133 58.4553C101.455 57.6848 101.725 56.8079 101.948 55.941C102.394 54.2069 102.662 52.4715 102.775 51.6197L101.783 51.4883ZM126.779 8.10918C126.207 7.26221 125.258 6.91456 124.178 7.08336C123.122 7.24843 121.932 7.90069 120.726 9.03649C118.308 11.3136 115.694 15.6524 113.785 22.5883L114.749 22.8537C116.631 16.0196 119.174 11.8714 121.411 9.76449C122.533 8.70829 123.546 8.19431 124.332 8.07137C125.095 7.95217 125.631 8.19477 125.951 8.6688L126.779 8.10918ZM114.482 23.1722C119.327 20.8585 122.724 17.6977 124.759 14.8545C125.775 13.4345 126.46 12.0816 126.811 10.9409C126.987 10.3709 127.083 9.84009 127.089 9.37226C127.094 8.90966 127.011 8.46909 126.786 8.11859L125.944 8.65939C126.026 8.78639 126.093 9.00951 126.089 9.36056C126.085 9.70639 126.012 10.1392 125.856 10.6466C125.544 11.6607 124.915 12.9174 123.946 14.2725C122.008 16.9792 118.742 20.0294 114.052 22.2698L114.482 23.1722Z" fill="black"/>
</svg>
